<svg xmlns="http://www.w3.org/2000/svg" xmlns:xlink="http://www.w3.org/1999/xlink" version="1.1" width="1000" height="1000" viewBox="0 0 1000 1000" xml:space="preserve">
<desc>Created with Fabric.js 3.5.0</desc>
<defs>
</defs>
<rect x="0" y="0" width="100%" height="100%" fill="#ffffff"/>
<g transform="matrix(1.2439 0 0 1.2439 685.8816 548.1915)" id="346843">
<path style="stroke: none; stroke-width: 1; stroke-dasharray: none; stroke-linecap: butt; stroke-dashoffset: 0; stroke-linejoin: miter; stroke-miterlimit: 4; is-custom-font: none; font-file-url: none; fill: rgb(0,0,0); fill-rule: nonzero; opacity: 1;" vector-effect="non-scaling-stroke" transform=" translate(-224, -256)" d="M 8 256 a 56 56 0 1 1 112 0 A 56 56 0 1 1 8 256 z m 160 0 a 56 56 0 1 1 112 0 a 56 56 0 1 1 -112 0 z m 216 -56 a 56 56 0 1 1 0 112 a 56 56 0 1 1 0 -112 z" stroke-linecap="round"/>
</g>
</svg>